# xmcd CD database file
#
# Track frame offsets:
#	150
#	19628
#	40677
#	54537
#	76769
#	95976
#	116457
#	135366
#	149657
#	169964
#	181630
#	200980
#	214308
#	240332
#
# Disc length: 3526 seconds
#
# Revision: 0
# Processed by: cddbd v1.5.2PL0 Copyright (c) Steve Scherf et al.
# Submitted via: CDex 1.70beta2
#
DISCID=c10dc40e
DTITLE=Dook Joint - Who's Been Talkin'
DYEAR=2002
DGENRE=Blues
TTITLE0=Walkin' The Dog
TTITLE1=Who's Been Talkin'
TTITLE2=Breakin' Down
TTITLE3=Ma Jolie
TTITLE4=No Computer Aid
TTITLE5=Bad Times
TTITLE6=Raincheck
TTITLE7=Frankie and Johnny
TTITLE8=You Can Stay But The Noise...
TTITLE9=Get Outta Yo Seat
TTITLE10=Always Broke
TTITLE11=Bright Lights, Big City
TTITLE12=When Something Is Wrong With My Baby
TTITLE13=Funky Broadway
EXTD=YEAR: 2002
EXTT0=
EXTT1=
EXTT2=
EXTT3=
EXTT4=
EXTT5=
EXTT6=
EXTT7=
EXTT8=
EXTT9=
EXTT10=
EXTT11=
EXTT12=
EXTT13=
PLAYORDER=
